<svg xmlns="http://www.w3.org/2000/svg" xmlns:xlink="http://www.w3.org/1999/xlink" xmlns:inkscape="http://www.inkscape.org/namespaces/inkscape" version="1.1" width="150.24" height="96.96002" viewBox="0 0 150.24 96.96002">
<defs>
<clipPath id="clip_1">
<path transform="matrix(1,0,0,-1,-182.04,511.756)" d="M182.04 414.796H332.28V511.756H182.04Z" clip-rule="evenodd"/>
</clipPath>
<clipPath id="clip_2">
<path transform="matrix(1,0,0,-1,-182.04,511.756)" d="M0 595.276H841.89V0H0Z"/>
</clipPath>
<path id="font_3_93" d="M.30126954-.0073242189C.26741538-.0073242189 .23429363-.00390625 .2019043 .0029296876 .16951497 .009765625 .13907878 .01977539 .1105957 .032958986 .08211263 .046142579 .056640626 .06201172 .034179689 .080566409L.096191409 .19091797C.123535159 .16845703 .15511067 .15112305 .19091797 .13891602 .22672527 .12670899 .26350913 .12060547 .30126954 .12060547 .3448893 .12060547 .3787435 .12801107 .40283204 .14282227 .42692057 .15763347 .43896485 .17854817 .43896485 .2055664V.20605469C.43896485 .22493489 .43359376 .23990886 .42285157 .25097657 .41210938 .26204429 .39811198 .27018229 .38085938 .27539063 .36360679 .28059898 .34147135 .285319 .31445313 .28955079 .31347657 .2898763 .3125814 .29003907 .31176759 .29003907 .31095378 .29003907 .3100586 .2902018 .30908204 .29052735L.29833985 .2919922C.2508138 .29947917 .21142578 .3088379 .18017578 .32006837 .14892578 .33129884 .122395839 .35099284 .10058594 .3791504 .07877604 .40730796 .067871097 .44726563 .067871097 .49902345V.49951173C.067871097 .54541018 .078125 .58463546 .09863281 .6171875 .119140628 .64973959 .14892578 .67456057 .18798828 .6916504 .22705078 .70874026 .2742513 .71728518 .32958985 .71728518 .35498048 .71728518 .38094078 .71435549 .4074707 .7084961 .43400065 .7026367 .45996095 .69417318 .48535157 .68310549 .5107422 .6720378 .53483077 .6586914 .5576172 .6430664L.50097659 .52978518C.4736328 .54866537 .44506837 .5633138 .4152832 .57373049 .38549806 .58414718 .3569336 .58935549 .32958985 .58935549 .28857423 .58935549 .25683595 .5826009 .234375 .5690918 .21191406 .5555827 .2006836 .5366211 .2006836 .51220706V.51171877C.2006836 .49121095 .20654297 .47501628 .21826172 .46313478 .22998047 .45125328 .24446614 .44254557 .26171876 .43701173 .27897135 .43147788 .30322267 .4256185 .33447267 .4194336 .33577476 .41910807 .3370768 .41886393 .3383789 .41870118 .339681 .41853843 .34098307 .41829429 .34228517 .41796876 .34423829 .41764323 .34611003 .41723634 .3479004 .41674806 .34969078 .41625978 .3515625 .41585288 .35351563 .41552735 .3984375 .40673829 .43595378 .39607749 .46606446 .38354493 .49617515 .37101237 .5213216 .35083009 .5415039 .32299806 .5616862 .29516603 .57177737 .25716148 .57177737 .20898438V.20800781C.57177737 .16276042 .56119796 .12402344 .54003909 .091796878 .5188802 .059570314 .4880371 .03499349 .44750978 .018066407 .40698243 .0011393229 .3582357-.0073242189 .30126954-.0073242189Z"/>
<path id="font_3_213" d="M.068359378 .50683596H.20214844V-.20605469H.068359378V.50683596M.31982423-.0073242189C.2902018-.0073242189 .26464845 .00024414063 .24316406 .015380859 .22167969 .030517579 .20572917 .051920576 .1953125 .079589847L.20214844 .1953125C.20214844 .17871094 .20507813 .16455078 .2109375 .15283203 .21679688 .14111328 .2253418 .13216146 .23657227 .12597656 .24780274 .119791667 .26139323 .11669922 .27734376 .11669922 .30240885 .11669922 .32185874 .125 .33569337 .14160156 .34952799 .15820313 .3564453 .18164063 .3564453 .21191406V.29248048C.3564453 .32340495 .34952799 .3474121 .33569337 .36450196 .32185874 .3815918 .30240885 .39013673 .27734376 .39013673 .26139323 .39013673 .24780274 .3869629 .23657227 .38061524 .2253418 .37426759 .21679688 .36507163 .2109375 .35302735 .20507813 .34098307 .20214844 .32633464 .20214844 .30908204L.19189453 .42138673C.2055664 .45100913 .22355144 .47387696 .24584961 .48999024 .2681478 .5061035 .292806 .51416018 .31982423 .51416018 .3556315 .51416018 .38631187 .5055339 .41186524 .48828126 .4374186 .47102867 .4568685 .44580079 .47021485 .41259767 .4835612 .37939454 .49023438 .33951823 .49023438 .29296876V.21191406C.49023438 .16569011 .4835612 .1262207 .47021485 .09350586 .4568685 .060791017 .4374186 .035807294 .41186524 .018554688 .38631187 .0013020834 .3556315-.0073242189 .31982423-.0073242189Z"/>
<path id="font_3_216" d="M.068359378 .50683596H.21191406V0H.068359378V.50683596M.35351563 .36572267C.34700523 .37223307 .33902995 .37711589 .32958985 .3803711 .32014976 .3836263 .30924479 .3852539 .296875 .3852539 .26985679 .3852539 .24894206 .37654624 .23413086 .35913087 .21931966 .34171549 .21191406 .31754557 .21191406 .2866211L.20166016 .41845704C.21565755 .44873048 .23380535 .47224937 .25610353 .48901368 .2784017 .505778 .30289714 .51416018 .32958985 .51416018 .3507487 .51416018 .36987306 .51082357 .3869629 .5041504 .40405274 .4974772 .4189453 .48763023 .43164063 .47460938L.35351563 .36572267Z"/>
<path id="font_3_130" d="M.34716798 .32128907C.34716798 .34472657 .33935548 .36279298 .32373048 .37548829 .30810548 .3881836 .28597007 .39453126 .25732423 .39453126 .23844402 .39453126 .21972656 .3914388 .20117188 .3852539 .18261719 .379069 .16617839 .37044273 .15185547 .359375L.068847659 .44091798C.089029949 .46402995 .115722659 .48201499 .14892578 .49487306 .1821289 .50773116 .21891277 .51416018 .25927735 .51416018 .3035482 .51416018 .3413086 .5067546 .3725586 .49194337 .4038086 .47713218 .42765299 .4556478 .4440918 .42749024 .4605306 .39933268 .46875 .36539714 .46875 .3256836V0H.34716798V.32128907M.20605469-.0073242189C.1516927-.0073242189 .111083988 .0056152346 .084228519 .03149414 .057373048 .057373048 .043945314 .09667969 .043945314 .14941406 .043945314 .19954427 .059000654 .23714192 .08911133 .26220704 .11922201 .28727214 .16438802 .2998047 .22460938 .2998047H.3515625L.35839845 .1977539H.22509766C.20491536 .1977539 .18977864 .19376628 .1796875 .18579102 .16959636 .17781575 .16455078 .16569011 .16455078 .14941406 .16455078 .1328125 .17089844 .120524089 .18359375 .11254883 .19628906 .10457357 .2154948 .10058594 .24121094 .10058594 .27701823 .10058594 .30362956 .104654949 .32104493 .11279297 .3384603 .12093099 .34716798 .1336263 .34716798 .1508789L.35742188 .07714844C.35546876 .05891927 .34708659 .04345703 .3322754 .030761719 .3174642 .018066407 .29890953 .008544922 .27661134 .0021972657 .25431315-.0041503908 .23079427-.0073242189 .20605469-.0073242189Z"/>
<path id="font_3_144" d="M.28271485-.0073242189C.23453777-.0073242189 .193278 .0018717448 .15893555 .020263672 .1245931 .038655599 .098470058 .06542969 .080566409 .10058594 .06266276 .13574219 .053710939 .17805989 .053710939 .22753906V.28173829C.053710939 .33089195 .06266276 .37280274 .080566409 .4074707 .098470058 .44213868 .1245931 .46858726 .15893555 .4868164 .193278 .5050456 .23453777 .51416018 .28271485 .51416018 .31038413 .51416018 .33650718 .5109863 .36108399 .5046387 .3856608 .49829103 .40771485 .48909507 .4272461 .47705079 .44677735 .4650065 .46305339 .45035807 .47607423 .43310548L.38964845 .3491211C.37727867 .3605143 .36279298 .36938478 .3461914 .37573243 .32958985 .38208009 .31217448 .3852539 .2939453 .3852539 .26009117 .3852539 .23388672 .3762207 .21533203 .3581543 .19677735 .3400879 .1875 .31461589 .1875 .28173829V.22753906C.1875 .19368489 .19677735 .16756185 .21533203 .14916992 .23388672 .130778 .26009117 .12158203 .2939453 .12158203 .3125 .12158203 .33007813 .125 .3466797 .13183594 .36328126 .13867188 .37760417 .1484375 .38964845 .16113281L.47607423 .072265628C.46272788 .055338544 .44628907 .040934247 .4267578 .029052735 .40722657 .017171225 .3852539 .0081380209 .36083985 .001953125 .33642579-.004231771 .31038413-.0073242189 .28271485-.0073242189Z"/>
<path id="font_3_173" d="M.068359378 .70996096H.20214844V0H.068359378V.70996096M.36132813 .3071289C.36132813 .3318685 .35424806 .35107423 .3400879 .3647461 .32592774 .37841798 .3058268 .3852539 .27978517 .3852539 .25504557 .3852539 .23592122 .37833659 .22241211 .36450196 .208903 .35066734 .20214844 .33121745 .20214844 .30615235L.19189453 .41845704C.20719402 .45035807 .22550456 .47428385 .24682617 .49023438 .2681478 .5061849 .29492188 .51416018 .32714845 .51416018 .38053385 .51416018 .421875 .49617515 .45117188 .46020509 .48046876 .42423503 .4951172 .3733724 .4951172 .3076172V0H.36132813V.3071289Z"/>
<path id="font_3_142" d="M.31982423-.0073242189C.2902018-.0073242189 .26464845 .00024414063 .24316406 .015380859 .22167969 .030517579 .20572917 .051920576 .1953125 .079589847L.20214844 .1953125C.20214844 .17871094 .20507813 .16455078 .2109375 .15283203 .21679688 .14111328 .2253418 .13216146 .23657227 .12597656 .24780274 .119791667 .26139323 .11669922 .27734376 .11669922 .30240885 .11669922 .32185874 .125 .33569337 .14160156 .34952799 .15820313 .3564453 .18164063 .3564453 .21191406V.29248048C.3564453 .32340495 .34952799 .3474121 .33569337 .36450196 .32185874 .3815918 .30240885 .39013673 .27734376 .39013673 .26139323 .39013673 .24780274 .3869629 .23657227 .38061524 .2253418 .37426759 .21679688 .36507163 .2109375 .35302735 .20507813 .34098307 .20214844 .32633464 .20214844 .30908204L.19189453 .42138673C.2055664 .45100913 .22355144 .47387696 .24584961 .48999024 .2681478 .5061035 .292806 .51416018 .31982423 .51416018 .3556315 .51416018 .38631187 .5055339 .41186524 .48828126 .4374186 .47102867 .4568685 .44580079 .47021485 .41259767 .4835612 .37939454 .49023438 .33951823 .49023438 .29296876V.21191406C.49023438 .16569011 .4835612 .1262207 .47021485 .09350586 .4568685 .060791017 .4374186 .035807294 .41186524 .018554688 .38631187 .0013020834 .3556315-.0073242189 .31982423-.0073242189M.068359378 .70996096H.20214844V0H.068359378V.70996096Z"/>
<path id="font_3_175" d="M.061035158 .70996096H.19482422V.5761719H.061035158V.70996096M.061035158 .50683596H.19482422V0H.061035158V.50683596Z"/>
<path id="font_3_188" d="M.20214844 .16748047C.20214844 .15511067 .20564778 .14558919 .21264649 .13891602 .21964519 .13224285 .22965496 .12890625 .24267578 .12890625H.26513673V0H.19677735C.15608724 0 .12451172 .01171875 .10205078 .03515625 .079589847 .05859375 .068359378 .09163412 .068359378 .13427735V.70996096H.20214844V.16748047Z"/>
<path id="font_3_149" d="M.34179688 .70996096H.47558595V0H.34179688V.70996096M.2241211-.0073242189C.1883138-.0073242189 .15763347 .0013020834 .13208008 .018554688 .106526698 .035807294 .08707682 .060791017 .07373047 .09350586 .060384115 .1262207 .053710939 .16569011 .053710939 .21191406V.29296876C.053710939 .33951823 .060384115 .37939454 .07373047 .41259767 .08707682 .44580079 .106526698 .47102867 .13208008 .48828126 .15763347 .5055339 .1883138 .51416018 .2241211 .51416018 .2511393 .51416018 .27579753 .5061035 .2980957 .48999024 .3203939 .47387696 .3383789 .45100913 .35205079 .42138673L.34179688 .30908204C.34179688 .32633464 .3388672 .34098307 .3330078 .35302735 .32714845 .36507163 .31860353 .37426759 .30737306 .38061524 .29614259 .3869629 .2825521 .39013673 .26660157 .39013673 .24153646 .39013673 .2220866 .3815918 .20825196 .36450196 .19441732 .3474121 .1875 .32340495 .1875 .29248048V.21191406C.1875 .18164063 .19441732 .15820313 .20825196 .14160156 .2220866 .125 .24153646 .11669922 .26660157 .11669922 .2825521 .11669922 .29614259 .119791667 .30737306 .12597656 .31860353 .13216146 .32714845 .14111328 .3330078 .15283203 .3388672 .16455078 .34179688 .17871094 .34179688 .1953125L.3486328 .079589847C.33821617 .051920576 .32226563 .030517579 .30078126 .015380859 .27929688 .00024414063 .2537435-.0073242189 .2241211-.0073242189Z"/>
<path id="font_3_231" d="M.359375 .50683596H.49267579V0H.359375V.50683596M.20214844 .19873047C.20214844 .1743164 .20906575 .15535482 .22290039 .1418457 .23673503 .1283366 .2561849 .12158203 .28125 .12158203 .3063151 .12158203 .3256022 .12849935 .33911134 .14233399 .35262046 .15616863 .359375 .17594402 .359375 .20166016L.36621095 .09082031C.35677085 .06315104 .34106446 .0398763 .3190918 .020996094 .29711915 .0021158856 .27034507-.0073242189 .23876953-.0073242189 .18440755-.0073242189 .14241536 .010172526 .11279297 .045166017 .08317057 .08015951 .068359378 .12972005 .068359378 .19384766V.50683596H.20214844V.19873047Z"/>
<path id="font_3_194" d="M.068359378 .50683596H.20214844V0H.068359378V.50683596M.36132813 .3071289C.36132813 .3318685 .35424806 .35107423 .3400879 .3647461 .32592774 .37841798 .3058268 .3852539 .27978517 .3852539 .25504557 .3852539 .23592122 .37833659 .22241211 .36450196 .208903 .35066734 .20214844 .33121745 .20214844 .30615235L.19189453 .41845704C.20719402 .45035807 .22550456 .47428385 .24682617 .49023438 .2681478 .5061849 .29492188 .51416018 .32714845 .51416018 .38053385 .51416018 .421875 .49617515 .45117188 .46020509 .48046876 .42423503 .4951172 .3733724 .4951172 .3076172V0H.36132813V.3071289Z"/>
<path id="font_3_169" d="M.24804688-.20605469C.2076823-.20605469 .17163086-.19897461 .13989258-.18481446 .1081543-.1706543 .083496097-.15071614 .06591797-.125L.15576172-.04248047C.16715496-.05485026 .18082683-.06437174 .19677735-.07104492 .21272786-.0777181 .22932942-.08105469 .24658203-.08105469 .2745768-.08105469 .29744468-.073404949 .31518556-.05810547 .33292643-.04280599 .34179688-.021647135 .34179688 .0053710939V.50683596H.47558595V.015136719C.47558595-.03141276 .46671549-.07128906 .4489746-.10449219 .43123374-.13769531 .40535484-.16292317 .3713379-.18017578 .33732096-.19742839 .29622398-.20605469 .24804688-.20605469M.2241211-.0073242189C.1883138-.0073242189 .15763347 .0013020834 .13208008 .018554688 .106526698 .035807294 .08707682 .060791017 .07373047 .09350586 .060384115 .1262207 .053710939 .16569011 .053710939 .21191406V.29296876C.053710939 .33951823 .060384115 .37939454 .07373047 .41259767 .08707682 .44580079 .106526698 .47102867 .13208008 .48828126 .15763347 .5055339 .1883138 .51416018 .2241211 .51416018 .2511393 .51416018 .27579753 .5061035 .2980957 .48999024 .3203939 .47387696 .3383789 .45100913 .35205079 .42138673L.34179688 .30908204C.34179688 .32633464 .3388672 .34098307 .3330078 .35302735 .32714845 .36507163 .31860353 .37426759 .30737306 .38061524 .29614259 .3869629 .2825521 .39013673 .26660157 .39013673 .24153646 .39013673 .2220866 .3815918 .20825196 .36450196 .19441732 .3474121 .1875 .32340495 .1875 .29248048V.21191406C.1875 .18164063 .19441732 .15820313 .20825196 .14160156 .2220866 .125 .24153646 .11669922 .26660157 .11669922 .2825521 .11669922 .29614259 .119791667 .30737306 .12597656 .31860353 .13216146 .32714845 .14111328 .3330078 .15283203 .3388672 .16455078 .34179688 .17871094 .34179688 .1953125L.3486328 .079589847C.33821617 .051920576 .32226563 .030517579 .30078126 .015380859 .27929688 .00024414063 .2537435-.0073242189 .2241211-.0073242189Z"/>
<path id="font_3_748" d="M.23046875 .28222657C.20670574 .30729167 .18693035 .33260093 .17114258 .3581543 .15535482 .38370768 .14339192 .4099935 .1352539 .43701173 .12711589 .46402995 .123046878 .49186198 .123046878 .5205078 .123046878 .5826823 .14046224 .630778 .17529297 .6647949 .2101237 .6988118 .2594401 .7158203 .3232422 .7158203 .38671876 .7158203 .43579103 .6994629 .47045899 .66674807 .50512698 .6340332 .52246096 .58772787 .52246096 .52783206V.5083008H.38867188V.52783206C.38867188 .55647787 .38297526 .57877609 .37158204 .59472659 .3601888 .61067709 .34407554 .61865237 .3232422 .61865237 .29915367 .61865237 .2804362 .6101074 .26708985 .5930176 .2537435 .57592776 .24707031 .5517578 .24707031 .5205078 .24707031 .5032552 .2513021 .4839681 .25976563 .46264649 .26822917 .44132487 .28051759 .41870118 .29663087 .3947754 .31274415 .3708496 .33203126 .34651695 .3544922 .32177735L.64697268 0H.49609376L.23046875 .28222657M.28759767 .31201173C.25309245 .31201173 .22648113 .30192057 .20776367 .28173829 .18904622 .261556 .1796875 .23307292 .1796875 .19628906 .1796875 .16927083 .18977864 .14835613 .20996094 .13354492 .23014324 .11873373 .2586263 .111328128 .29541017 .111328128 .33089195 .111328128 .36132813 .12182617 .38671876 .14282227 .41210938 .16381836 .43147788 .19376628 .44482423 .23266602 .45817057 .27156578 .46484376 .31722007 .46484376 .3696289H.59375C.59375 .29182945 .5813802 .22469075 .5566406 .16821289 .53190109 .11173502 .49560548 .068359378 .4477539 .038085939 .39990235 .0078125 .34179688-.0073242189 .2734375-.0073242189 .22721355-.0073242189 .18766277 .0006510417 .15478516 .016601563 .121907558 .032552083 .096842449 .05574544 .079589847 .08618164 .06233724 .116617839 .053710939 .15332031 .053710939 .19628906 .053710939 .25423179 .07055664 .3006185 .10424805 .33544923 .13793946 .37027995 .18538411 .39046226 .24658203 .3959961L.28759767 .31201173Z"/>
<path id="font_3_1" d=""/>
<path id="font_3_58" d="M.1586914 .27734376 .44335938 .70996096H.6118164L.17578125 .103515628 .1586914 .27734376M.078125 .70996096H.21191406V0H.078125V.70996096M.27685548 .359375 .39208985 .4321289 .64160159 0H.48291017L.27685548 .359375Z"/>
<path id="font_3_155" d="M.28564454-.0073242189C.2368164-.0073242189 .19506836 .001546224 .16040039 .01928711 .12573242 .037027997 .09928385 .0629069 .08105469 .09692383 .06282552 .13094075 .053710939 .171875 .053710939 .21972656V.27685548C.053710939 .3269857 .06241862 .36979167 .079833988 .40527345 .09724935 .44075523 .12263998 .46777345 .15600586 .48632813 .18937175 .5048828 .22965496 .51416018 .27685548 .51416018 .3211263 .51416018 .35904948 .50309249 .390625 .48095704 .42220054 .45882163 .44620768 .42667643 .46264649 .38452149 .4790853 .34236656 .4873047 .2915039 .4873047 .2319336V.19873047H.140625V.2890625H.36523438L.36376954 .30078126C.3601888 .33007813 .35099284 .3527018 .33618165 .36865235 .32137046 .38460288 .30159507 .39257813 .27685548 .39257813 .2446289 .39257813 .21964519 .38297526 .2019043 .36376954 .1841634 .3445638 .17529297 .3173828 .17529297 .28222657V.21777344C.17529297 .18326824 .18497722 .15657552 .2043457 .13769531 .22371419 .1188151 .2508138 .109375 .28564454 .109375 .3035482 .109375 .32128907 .11254883 .3388672 .118896488 .3564453 .12524414 .37239585 .13427735 .38671876 .1459961L.4741211 .068359378C.4477539 .044270833 .4181315 .025634766 .3852539 .012451172 .3523763-.0007324219 .3191732-.0073242189 .28564454-.0073242189Z"/>
<path id="font_3_227" d="M.20996094-.0024414063C.16569011-.0024414063 .1332194 .008870442 .11254883 .03149414 .09187826 .05411784 .08154297 .0875651 .08154297 .13183594V.6542969H.21533203V.16503906C.21533203 .15266927 .21777344 .14314778 .22265625 .13647461 .22753906 .12980144 .23470052 .12646485 .24414063 .12646485H.27734376V-.0024414063H.20996094M.029296875 .50683596H.27734376V.39257813H.029296875V.50683596Z"/>
<path id="font_3_243" d="M.3569336 .50683596H.49023438L.2998047 0H.20507813L.0146484379 .50683596H.14794922L.2524414 .18896485 .3569336 .50683596Z"/>
<path id="font_3_134" d="M.34716798 .32128907C.34716798 .34472657 .33935548 .36279298 .32373048 .37548829 .30810548 .3881836 .28597007 .39453126 .25732423 .39453126 .23844402 .39453126 .21972656 .3914388 .20117188 .3852539 .18261719 .379069 .16617839 .37044273 .15185547 .359375L.068847659 .44091798C.089029949 .46402995 .115722659 .48201499 .14892578 .49487306 .1821289 .50773116 .21891277 .51416018 .25927735 .51416018 .3035482 .51416018 .3413086 .5067546 .3725586 .49194337 .4038086 .47713218 .42765299 .4556478 .4440918 .42749024 .4605306 .39933268 .46875 .36539714 .46875 .3256836V0H.34716798V.32128907M.20605469-.0073242189C.1516927-.0073242189 .111083988 .0056152346 .084228519 .03149414 .057373048 .057373048 .043945314 .09667969 .043945314 .14941406 .043945314 .19954427 .059000654 .23714192 .08911133 .26220704 .11922201 .28727214 .16438802 .2998047 .22460938 .2998047H.3515625L.35839845 .1977539H.22509766C.20491536 .1977539 .18977864 .19376628 .1796875 .18579102 .16959636 .17781575 .16455078 .16569011 .16455078 .14941406 .16455078 .1328125 .17089844 .120524089 .18359375 .11254883 .19628906 .10457357 .2154948 .10058594 .24121094 .10058594 .27701823 .10058594 .30362956 .104654949 .32104493 .11279297 .3384603 .12093099 .34716798 .1336263 .34716798 .1508789L.35742188 .07714844C.35546876 .05891927 .34708659 .04345703 .3322754 .030761719 .3174642 .018066407 .29890953 .008544922 .27661134 .0021972657 .25431315-.0041503908 .23079427-.0073242189 .20605469-.0073242189M.2993164 .7446289H.43310548V.61083987H.2993164V.7446289M.09423828 .7446289H.22802735V.61083987H.09423828V.7446289Z"/>
<clipPath id="clip_4">
<path transform="matrix(1,0,0,-1,-182.04,511.756)" d="M0 595.276H841.89V0H0Z"/>
</clipPath>
<path id="font_3_86" d="M.13916016 .40429688H.36621095C.38216148 .40429688 .39624024 .40795899 .40844728 .4152832 .4206543 .42260743 .43017579 .43294273 .43701173 .44628907 .44384767 .4596354 .44726563 .4749349 .44726563 .4921875 .44726563 .5097656 .44392906 .52530929 .43725587 .53881838 .43058268 .55232748 .42114259 .56274417 .40893556 .57006838 .39672853 .5773926 .38248698 .5810547 .36621095 .5810547H.13916016V.70996096H.36279298C.4070638 .70996096 .44604493 .70092776 .47973634 .6828613 .51342776 .6647949 .5395508 .63932296 .55810549 .6064453 .57666018 .5735677 .5859375 .53548178 .5859375 .4921875 .5859375 .44889323 .57666018 .41088868 .55810549 .37817384 .5395508 .34545899 .51342776 .32014976 .47973634 .3022461 .44604493 .28434245 .4070638 .27539063 .36279298 .27539063H.13916016V.40429688M.078125 .70996096H.21191406V0H.078125V.70996096Z"/>
<path id="font_3_89" d="M.13134766 .41455079H.37841798C.39208985 .41455079 .40413413 .41796876 .41455079 .4248047 .42496745 .43164063 .43302409 .44140626 .4387207 .45410157 .44441734 .46679688 .44742839 .4814453 .4477539 .49804688 .4477539 .51464846 .4449056 .5292969 .43920899 .5419922 .43351237 .5546875 .42545573 .5644531 .41503907 .57128909 .4046224 .578125 .39241538 .58154299 .37841798 .58154299H.13134766V.7104492H.38916017C.42822267 .7104492 .4625651 .70166018 .4921875 .68408206 .5218099 .6665039 .5447591 .6416829 .56103518 .60961917 .5773112 .57755538 .5854492 .54036459 .5854492 .49804688 .5854492 .45572917 .5773112 .41853843 .56103518 .3864746 .5447591 .3544108 .5217285 .32958985 .49194337 .31201173 .4621582 .2944336 .42789714 .28564454 .38916017 .28564454H.13134766V.41455079M.078125 .7104492H.21191406V0H.078125V.7104492M.28076173 .3076172 .42382813 .33007813 .6152344 0H.453125L.28076173 .3076172Z"/>
<path id="font_3_2" d="M.28125 .70996096H.36621095L.6376953 0H.49365235L.32373048 .48486329 .1538086 0H.009765625L.28125 .70996096M.14013672 .24267578H.5136719V.11376953H.14013672V.24267578Z"/>
<path id="font_3_16" d="M.3203125-.0073242189C.26627604-.0073242189 .22005208 .0030110677 .18164063 .02368164 .14322917 .044352216 .11393229 .07446289 .09375 .11401367 .07356771 .15356446 .06347656 .20133464 .06347656 .25732423V.45214845C.06347656 .508138 .07356771 .5559082 .09375 .595459 .11393229 .63500979 .14322917 .66520187 .18164063 .68603518 .22005208 .70686849 .26627604 .71728518 .3203125 .71728518 .36490885 .71728518 .40478517 .7076823 .4399414 .68847659 .47509767 .6692708 .5041504 .6413574 .5270996 .6047363 .5500488 .56811526 .56591799 .5239258 .57470706 .47216798H.43603517C.4308268 .49560548 .42277018 .515625 .41186524 .53222659 .4009603 .5488281 .3877767 .56152346 .37231446 .5703125 .3568522 .57910159 .33951823 .5834961 .3203125 .5834961 .2952474 .5834961 .27392579 .57836917 .25634767 .56811526 .23876953 .5578613 .2253418 .5428874 .21606446 .52319338 .20678711 .5034993 .20214844 .47981773 .20214844 .45214845V.25732423C.20214844 .22965496 .20678711 .20605469 .21606446 .18652344 .2253418 .16699219 .23876953 .15209961 .25634767 .1418457 .27392579 .1315918 .2952474 .12646485 .3203125 .12646485 .33984376 .12646485 .35742188 .130778 .37304688 .1394043 .38867188 .1480306 .40185548 .16064453 .41259767 .1772461 .42333985 .19384766 .43115235 .21402996 .43603517 .23779297H.57470706C.56559249 .18603516 .54956057 .1418457 .5266113 .10522461 .5036621 .068603519 .47469078 .040690107 .43969728 .021484375 .40470378 .0022786458 .36490885-.0073242189 .3203125-.0073242189Z"/>
<path id="font_3_46" d="M.46679688 .70996096H.60058596V0H.46679688V.70996096M.078125 .70996096H.21191406V0H.078125V.70996096M.14013672 .4165039H.55371096V.28759767H.14013672V.4165039Z"/>
<path id="font_3_14" d="M.13671875 .12890625H.36328126C.39388023 .12890625 .41756187 .13631185 .43432618 .15112305 .45109049 .16593425 .45947267 .1866862 .45947267 .2133789V.21484375C.45947267 .23274739 .45572917 .24804688 .4482422 .2607422 .44075523 .2734375 .4297689 .28312174 .4152832 .28979493 .40079753 .2964681 .38346354 .2998047 .36328126 .2998047H.13671875V.42871095H.36328126C.39095054 .42871095 .41235353 .43570964 .42749024 .44970704 .44262696 .46370445 .4501953 .48339845 .4501953 .50878909 .4501953 .5315755 .44262696 .5493164 .42749024 .5620117 .41235353 .57470706 .39095054 .5810547 .36328126 .5810547H.13671875V.70996096H.36767579C.41357423 .70996096 .45279948 .7023926 .48535157 .68725588 .5179036 .67211917 .54264327 .6501465 .5595703 .6213379 .5764974 .5925293 .58496096 .5579427 .58496096 .5175781 .58496096 .48990885 .5795085 .46541343 .5686035 .4440918 .55769857 .42277018 .5418294 .40527345 .5209961 .39160157 .5001628 .3779297 .47509767 .36865235 .44580079 .36376954 .47705079 .35953776 .5038249 .35001628 .52612307 .33520509 .5484212 .3203939 .5653483 .30110679 .5769043 .27734376 .58846029 .25358073 .5942383 .22607422 .5942383 .19482422V.19335938C.5942383 .15266927 .58569338 .11783854 .5686035 .08886719 .5515137 .059895833 .5266113 .037841798 .49389649 .022705079 .46118165 .0075683596 .421875 0 .37597657 0H.13671875V.12890625M.078125 .70996096H.21191406V0H.078125V.70996096Z"/>
<path id="font_3_48" d="M.20703125 0H.068359378V.70996096H.20703125V0Z"/>
<path id="font_3_61" d="M.078125 .70996096H.21191406V0H.078125V.70996096M.13769531 .12890625H.55371096V0H.13769531V.12890625Z"/>
<path id="font_3_21" d="M.14550781 .12890625H.31591798C.35986329 .12890625 .39388023 .13948567 .41796876 .16064453 .44205729 .18180339 .45410157 .2117513 .45410157 .25048829V.45947267C.45410157 .49820964 .44205729 .52815756 .41796876 .5493164 .39388023 .5704753 .35986329 .5810547 .31591798 .5810547H.14550781V.70996096H.31298829C.37223307 .70996096 .42277018 .70003256 .4645996 .6801758 .506429 .66031906 .5382487 .63134768 .5600586 .5932617 .58186849 .5551758 .59277346 .50927737 .59277346 .4555664V.25439454C.59277346 .20328777 .5822754 .1586914 .5612793 .12060547 .5402832 .08251953 .50878909 .052897138 .46679688 .03173828 .4248047 .010579427 .3733724 0 .3125 0H.14550781V.12890625M.078125 .70996096H.21191406V0H.078125V.70996096Z"/>
<path id="font_3_104" d="M.32714845-.0073242189C.27246095-.0073242189 .2257487 .0030110677 .18701172 .02368164 .14827474 .044352216 .1188151 .07446289 .09863281 .11401367 .07845052 .15356446 .068359378 .20117188 .068359378 .25683595V.70996096H.20214844V.25341798C.20214844 .21272786 .21305339 .18115235 .23486328 .1586914 .2566732 .13623047 .2874349 .125 .32714845 .125 .3671875 .125 .39819337 .13623047 .42016603 .1586914 .44213868 .18115235 .453125 .21272786 .453125 .25341798V.70996096H.58691409V.25683595C.58691409 .20117188 .5767415 .15356446 .5563965 .11401367 .53605148 .07446289 .506429 .044352216 .4675293 .02368164 .42862956 .0030110677 .38183595-.0073242189 .32714845-.0073242189Z"/>
<path id="font_3_67" d="M.078125 .70996096H.24169922L.5058594 .16601563 .49414063 .15332031V.70996096H.6220703V.00048828127H.45751954L.19433594 .5361328 .20605469 .5488281V.00048828127H.078125V.70996096Z"/>
<path id="font_3_42" d="M.5830078 .39697267V.25830079C.5830078 .2055664 .572347 .15909831 .5510254 .118896488 .5297038 .078694667 .49951173 .047607423 .46044923 .025634766 .42138673 .0036621094 .3761393-.0073242189 .32470704-.0073242189 .27294923-.0073242189 .22729492 .0030110677 .18774414 .02368164 .14819336 .044352216 .1175944 .07356771 .095947269 .111328128 .07430013 .14908855 .06347656 .1928711 .06347656 .24267578V.45214845C.06347656 .5048828 .07413737 .55126956 .095458988 .5913086 .1167806 .63134768 .14697266 .6623535 .18603516 .6843262 .22509766 .7062988 .27034507 .71728518 .32177735 .71728518 .36409507 .71728518 .40315757 .70857748 .43896485 .6911621 .47477214 .67374679 .5046387 .64908859 .52856448 .6171875 .55249026 .58528646 .5686849 .54833987 .57714846 .50634768H.4326172C.42773438 .5213216 .41967774 .53426107 .40844728 .545166 .3972168 .556071 .3840332 .56437179 .36889649 .57006838 .35375978 .57576498 .33805339 .5786133 .32177735 .5786133 .2980143 .5786133 .2770996 .57340499 .2590332 .5629883 .2409668 .5525716 .2269694 .53776046 .21704102 .5185547 .20711263 .49934898 .20214844 .47721354 .20214844 .45214845V.24267578C.20214844 .22054036 .20719402 .20100911 .21728516 .18408203 .2273763 .16715496 .24169922 .15413411 .2602539 .14501953 .2788086 .13590496 .30029298 .13134766 .32470704 .13134766 .34879557 .13134766 .36987306 .13631185 .38793946 .14624024 .40600587 .15616863 .41992188 .17057292 .4296875 .18945313 .43945313 .20833333 .44433595 .23063152 .44433595 .25634767V.2680664H.33691407V.39697267H.5830078Z"/>
<path id="font_3_27" d="M.078125 .70996096H.21191406V0H.078125V.70996096M.12646485 .12890625H.55371096V0H.12646485V.12890625M.12646485 .4169922H.5V.28808595H.12646485V.4169922M.12646485 .70996096H.55371096V.5810547H.12646485V.70996096Z"/>
<path id="font_3_100" d="M.17382813 .65185549H.3076172V0H.17382813V.65185549M-.01953125 .70996096H.50097659V.5810547H-.01953125V.70996096Z"/>
<path id="font_3_116" d="M.0048828127 .70996096H.14257813L.29345704 .23632813 .44433595 .70996096H.58203127L.34570313 0H.24121094L.0048828127 .70996096Z"/>
<path id="font_3_6" d="M.28125 .70996096H.36621095L.6376953 0H.49365235L.32373048 .48486329 .1538086 0H.009765625L.28125 .70996096M.14013672 .24267578H.5136719V.11376953H.14013672V.24267578M.359375 .90185549H.49316407V.7680664H.359375V.90185549M.15429688 .90185549H.28808595V.7680664H.15429688V.90185549Z"/>
<clipPath id="clip_5">
<path transform="matrix(1,0,0,-1,-182.04,511.756)" d="M0 595.276H841.89V0H0Z"/>
</clipPath>
<path id="font_3_246" d="M.48291017 .50683596 .25732423-.118652347C.24886067-.14176433 .23836263-.16007488 .22583008-.17358399 .21329753-.1870931 .19783528-.19677735 .17944336-.20263672 .16105144-.2084961 .13834636-.21142578 .111328128-.21142578H.08154297V-.08154297H.111328128C.12565105-.08154297 .13761394-.07836914 .1472168-.072021488 .15681966-.06567383 .1640625-.055338544 .16894531-.041015626L.3569336 .50683596H.48291017M.0146484379 .50683596H.140625L.31103517 .06640625 .2265625-.041503908 .0146484379 .50683596Z"/>
<path id="font_3_200" d="M.27246095-.0073242189C.22623699-.0073242189 .18676758 .0013020834 .15405274 .018554688 .12133789 .035807294 .09643555 .060953779 .0793457 .09399414 .06225586 .1270345 .053710939 .16682942 .053710939 .2133789V.29589845C.053710939 .34179688 .06225586 .38110353 .0793457 .41381837 .09643555 .4465332 .12133789 .47143556 .15405274 .4885254 .18676758 .50561526 .22623699 .51416018 .27246095 .51416018 .3186849 .51416018 .3581543 .50561526 .39086915 .4885254 .42358399 .47143556 .44848634 .4465332 .46557618 .41381837 .48266603 .38110353 .49121095 .34179688 .49121095 .29589845V.21191406C.49121095 .16569011 .48266603 .1262207 .46557618 .09350586 .44848634 .060791017 .42358399 .035807294 .39086915 .018554688 .3581543 .0013020834 .3186849-.0073242189 .27246095-.0073242189M.27197267 .12158203C.29899089 .12158203 .31998698 .1294759 .33496095 .14526367 .3499349 .16105144 .35742188 .18326824 .35742188 .21191406V.29589845C.35742188 .32421876 .3499349 .3461914 .33496095 .3618164 .31998698 .3774414 .29899089 .3852539 .27197267 .3852539 .24527996 .3852539 .224528 .3774414 .2097168 .3618164 .1949056 .3461914 .1875 .32421876 .1875 .29589845V.21191406C.1875 .18326824 .19482422 .16105144 .20947266 .14526367 .2241211 .1294759 .24495442 .12158203 .27197267 .12158203Z"/>
</defs>
<g>
<g clip-path="url(#clip_1)">
<g inkscape:groupmode="layer" inkscape:label="Ebene 1">
<g clip-path="url(#clip_2)">
<path transform="matrix(1,0,0,-1,-63.292596,-47.31198)" d="M0 0V0C0 7.28 5.902 13.182 13.182 13.182 20.462 13.182 26.363 7.28 26.363 0 26.363-7.28 20.462-13.182 13.182-13.182 5.902-13.182 0-7.28 0 0" fill="#5fcae4"/>
<path transform="matrix(1,0,0,-1,-95.164699,-47.31198)" d="M0 0V0C0 7.28 5.902 13.182 13.182 13.182 20.462 13.182 26.363 7.28 26.363 0 26.363-7.28 20.462-13.182 13.182-13.182 5.902-13.182 0-7.28 0 0" fill="#79c8a0"/>
<path transform="matrix(1,0,0,-1,-127.03679,-47.31198)" d="M0 0V0C0 7.28 5.902 13.182 13.182 13.182 20.462 13.182 26.363 7.28 26.363 0 26.363-7.28 20.462-13.182 13.182-13.182 5.902-13.182 0-7.28 0 0" fill="#0e7186"/>
<path transform="matrix(1,0,0,-1,-158.90889,-47.31198)" d="M0 0V0C0 7.28 5.902 13.182 13.182 13.182 20.462 13.182 26.363 7.28 26.363 0 26.363-7.28 20.462-13.182 13.182-13.182 5.902-13.182 0-7.28 0 0" fill="#fdb947"/>
<path transform="matrix(1,0,0,-1,338.70545,328.5273)" d="M0 0C2.512 1.137 4.082 2.703 5.284 4.636 5.73 5.477 6.113 6.678 5.473 7.447 3.738 9.533-.898 4.519 0 0M36.879-17.991C36.543-19.358 35.296-20.345 34.069-20.891 26.942-24.066 18.886-23.373 12.265-19.261 8.89-17.166 6.14-14.534 3.666-11.465L.435-7.001-.178-7.491 .011-17.903C-.443-19.121-1.413-19.595-2.765-19.721-3.843-19.822-5.774-19.569-6.177-18.2L-6.923 8.142-6.916 13.085C-6.914 14.522-5.183 15.199-3.891 15.16-3.081 15.135-2.218 14.927-1.671 14.466-1.105 13.988-.954 13.05-.763 11.995 2.169 14.428 6.262 14.988 9.424 12.806 13.363 10.088 12.446 2.722 8.109-1.709L6.043-3.819C10.316-11.351 17.625-17.145 26.48-16.553 31.398-16.224 33.553-13.13 35.739-14.874 36.543-15.515 37.215-16.629 36.879-17.991" fill="#0e7186"/>
<path transform="matrix(1,0,0,-1,456.27626,340.7278)" d="M0 0C3.802 .632 6.092 5.072 6.005 8.637 5.936 11.448 3.856 13.526 1.081 13.477-.973 13.44-2.862 12.441-4.023 10.686-5.566 8.355-5.868 5.336-4.877 2.75-4.099 .719-2.237-.372 0 0M6.645-3.298C2.683-6.313-2.375-7.309-6.683-4.687-13.186-.728-13.133 9.893-8.342 15.465-4.498 19.935 1.687 21.011 6.913 18.085L7.413 30.902C7.475 32.481 9.486 33.206 10.861 32.908 12.018 32.873 13.737 32.047 13.703 30.664L13.212 10.303 13.168-4.657C13.163-6.306 11.501-7.15 9.98-7.008 9.133-6.929 8.167-6.704 7.659-6.184 7.03-5.54 6.966-4.71 6.645-3.298" fill="#fbab18"/>
<path transform="matrix(1,0,0,-1,341.40626,303.3214)" d="M0 0C2.056-.727 4.112-.112 5.543 1.295 8.723 4.419 9.611 10.025 6.199 12.325 4.62 13.389 2.848 13.504 1.088 12.765-2.663 11.189-3.92 6.186-2.263 2.284-1.855 1.323-1.048 .371 0 0M9.149-4.018C9.082-3.012 5.95-7.161-.021-6.421-3.766-5.957-6.872-3.557-8.301 .01-9.825 3.815-9.633 8.074-8.085 11.849-5.228 18.536 2.702 21.518 9.255 17.695L9.723 30.634C9.779 32.181 11.458 32.985 12.847 32.899 13.853 32.837 14.757 32.552 15.342 31.946 16.022 31.242 16.069 30.384 16.05 29.313L15.443-5.295C15.415-6.877 13.42-7.536 12.2-7.484 11.277-7.445 10.495-7.246 9.918-6.733 9.42-6.291 9.236-5.334 9.188-4.603Z" fill="#5fcae4"/>
<path transform="matrix(1,0,0,-1,418.9903,299.6079)" d="M0 0C1.969-.527 3.987 .054 5.456 1.395 7.62 3.369 8.38 6.476 7.457 9.238 6.829 11.116 4.973 11.967 3.092 11.44-.144 10.532-1.619 6.178-2 2.687-2.141 1.388-1.33 .356 0 0M-2.409-6.022C-2.48-7.118-2.965-8.032-4.087-8.334-4.949-8.566-6.155-8.573-6.974-8.295-8.288-7.849-8.702-6.819-8.68-5.491L-8.089 30.813C-8.065 32.269-6.084 32.881-5.101 32.963-3.981 33.057-1.85 32.41-1.854 30.991L-1.905 15.909C3.293 19.413 10.446 17.938 13 12.234 15.411 6.848 13.481 .327 9.136-3.401 5.868-6.205 1.874-7.079-2.409-6.022" fill="#79c8a0"/>
<path transform="matrix(1,0,0,-1,462.43714,287.21983)" d="M0 0C.3 .44 .356 1.428 .142 1.899-.589 3.503-3.968 3.915-6.296 2.264-8.159 .943-9.325-1.081-9.592-3.352-6.111-3.227-1.787-2.619 0 0M-2.041-13.575C-.608-13.216 .546-12.565 1.413-11.542 2.438-10.333 4.026-10.262 5.23-11.014 6.526-11.823 6.97-13.467 6.212-14.967 5.609-16.162 4.577-17.209 3.364-17.954-.749-20.483-5.955-20.734-10.224-18.347-17.272-14.406-17.888-3.596-13.715 3.322-10.67 8.37-4.738 10.681 .782 8.834 2.83 8.148 4.624 6.873 5.569 4.95 7.158 1.717 6.378-2.114 3.982-4.705 .349-8.166-4.381-8.972-9.493-9.695-8.466-12.789-5.241-14.376-2.041-13.575" fill="#79c8a0"/>
<path transform="matrix(1,0,0,-1,436.0692,324.4507)" d="M0 0C-.697 1.988-4.849 2.387-7.484-.398-8.769-1.756-9.607-3.311-9.649-5.335-7.779-5.254-5.983-5.092-4.229-4.609-1.625-3.891 .723-2.062 0 0M1.55-13.29C2.577-12.125 4.433-12.593 5.304-13.411 6.377-14.418 6.63-15.946 5.835-17.309 3.753-20.876-2.096-22.431-6.399-21.689-10.101-21.052-13.268-18.636-14.821-15.135-17.283-9.591-16.832-3.039-13.474 2.066-10.326 6.851-4.161 8.826 1.152 6.96 4.699 5.713 6.622 2.349 6.24-1.303 5.466-8.693-2.553-11.057-9.427-11.538-8.501-14.589-5.613-16.099-2.624-15.647-.87-15.382 .362-14.636 1.55-13.29" fill="#5fcae4"/>
<path transform="matrix(1,0,0,-1,388.8382,278.45683)" d="M0 0C1.567-.021 3.129-.969 3.061-2.555L2.592-13.549C2.45-16.888 2.919-22.171 5.479-23.588 7.036-24.45 8.842-23.686 9.765-22.264 13.122-17.091 11.677-8.539 11.624-1.857 11.613-.465 13.37 .341 14.315 .473 15.538 .644 17.302 .26 17.783-1.076 18.187-5.748 18.343-10.436 18.145-15.177 17.988-18.931 17.079-22.399 15.068-25.447 12.629-29.144 8.437-30.794 4.113-29.633-1.49-28.128-3.836-21.112-3.688-15.654L-3.365-3.713C-3.338-2.718-3.364-1.759-2.727-1.04-2.127-.364-1.205 .016 0 0" fill="#fbab18"/>
<path transform="matrix(1,0,0,-1,392.6109,336.26283)" d="M0 0C1.859 2.691 1.931 6.363 .409 9.165-.347 10.556-1.802 11.381-3.106 11.486-4.602 11.606-6.053 11.044-7.017 9.863-9.192 7.198-9.584 3.403-8.011 .369-7.222-1.153-5.758-2.126-4.242-2.237-2.585-2.359-1.06-1.535 0 0M1.943-6.66C-3.915-10.474-11.391-8.026-14.084-1.728-15.977 2.698-15.773 7.807-13.375 11.985-11.108 15.936-7.03 18.127-2.482 17.764 1.713 17.43 5.179 14.722 6.715 10.825 9.039 4.93 7.549-3.01 1.943-6.66" fill="#79c8a0"/>
<path transform="matrix(1,0,0,-1,374.9829,300.62303)" d="M0 0C1.752 2.76 1.991 6.354 .491 9.133-.339 10.672-1.762 11.538-3.288 11.623-4.834 11.709-6.254 10.956-7.218 9.601-9.146 6.89-9.414 3.159-7.819 .234-6.996-1.277-5.492-2.117-3.953-2.194-2.397-2.271-.953-1.502 0 0M-3.064-8.383C-7.86-8.833-12.067-6.188-13.854-1.844-15.657 2.539-15.485 7.55-13.344 11.757-11.235 15.899-7.028 18.257-2.549 17.844 1.902 17.434 5.63 14.548 7.053 10.127 9.627 2.128 5.598-7.569-3.064-8.383" fill="#0e7186"/>
<path transform="matrix(1,0,0,-1,367.4035,333.087)" d="M0 0C1.76 2.645 1.98 6.147 .72 8.962 .009 10.552-1.49 11.52-2.96 11.655-4.644 11.811-6.224 10.989-7.135 9.533-8.807 6.861-9.251 3.49-7.931 .651-7.184-.955-5.82-2.012-4.206-2.144-2.615-2.274-1.041-1.565 0 0M.373-7.413C-5.367-9.933-11.575-7.256-13.86-1.524-15.653 2.974-15.315 8.225-12.876 12.444-10.511 16.533-6.318 18.517-1.636 17.88 2.561 17.309 6.145 14.139 7.306 9.709 8.978 3.335 6.772-4.603 .373-7.413" fill="#fbab18"/>
<path transform="matrix(1,0,0,-1,452.2669,310.26393)" d="M0 0C1.36 .733 2.832 .465 3.638-.776 4.331-1.843 4.383-3.144 3.782-4.398 2.286-7.521-6.254-8.151-11.386-2.42-16.279 3.043-16.85 10.744-16.606 18.034-16.364 25.284-15.696 32.332-14.998 39.553-15.026 41.226-14.004 42.378-12.162 42.329-11.133 42.479-8.646 41.754-8.755 40.295L-10.222 20.838C-10.527 16.789-10.425 12.948-9.832 8.983-9.473 6.584-8.722 4.292-7.29 2.393-5.536 .066-2.473-1.332 0 0" fill="#5fcae4"/>
<path transform="matrix(1,0,0,-1,416.05854,342.9424)" d="M0 0C1.57 .562 2.906 .001 3.51-1.401 4.244-3.107 3.502-5.027 1.631-5.749-1.617-7.003-5.374-5.848-7.724-3.242-11.13 .535-12.431 6.625-12.03 11.581L-11.31 20.482-14.018 20.947C-15.232 21.155-16.036 22.26-16.199 23.477-16.322 24.396-16.063 25.438-15.475 26.043-14.846 26.688-13.855 26.95-12.944 26.92L-10.338 26.833-9.839 30.853C-9.664 32.27-8.413 32.963-6.929 32.934-5.78 32.911-3.854 32.534-3.638 31.079-3.406 29.515-4.03 27.763-4.003 26.095L1.365 25.294C3.089 25.036 3.539 21.569 1.977 20.054 1.34 19.438 .304 19.257-.629 19.333L-4.943 19.683-5.674 11.339C-6.144 5.971-3.652-1.308 0 0" fill="#0e7186"/>
</g>
<use data-text="S" xlink:href="#font_3_93" transform="matrix(21.1143,0,0,-21.1143,330.30525,376.75993)" fill="#0e7186"/>
<use data-text="p" xlink:href="#font_3_213" transform="matrix(21.1143,0,0,-21.1143,343.52278,376.75993)" fill="#0e7186"/>
<use data-text="r" xlink:href="#font_3_216" transform="matrix(21.1143,0,0,-21.1143,355.2201,376.75993)" fill="#0e7186"/>
<use data-text="a" xlink:href="#font_3_130" transform="matrix(21.1143,0,0,-21.1143,364.44703,376.75993)" fill="#0e7186"/>
<use data-text="c" xlink:href="#font_3_144" transform="matrix(21.1143,0,0,-21.1143,375.891,376.75993)" fill="#0e7186"/>
<use data-text="h" xlink:href="#font_3_173" transform="matrix(21.1143,0,0,-21.1143,386.61708,376.75993)" fill="#0e7186"/>
<use data-text="b" xlink:href="#font_3_142" transform="matrix(21.1143,0,0,-21.1143,398.6311,376.75993)" fill="#0e7186"/>
<use data-text="i" xlink:href="#font_3_175" transform="matrix(21.1143,0,0,-21.1143,410.32844,376.75993)" fill="#0e7186"/>
<use data-text="l" xlink:href="#font_3_188" transform="matrix(21.1143,0,0,-21.1143,415.83924,376.75993)" fill="#0e7186"/>
<use data-text="d" xlink:href="#font_3_149" transform="matrix(21.1143,0,0,-21.1143,422.16297,376.75993)" fill="#0e7186"/>
<use data-text="u" xlink:href="#font_3_231" transform="matrix(21.1143,0,0,-21.1143,433.7547,376.75993)" fill="#0e7186"/>
<use data-text="n" xlink:href="#font_3_194" transform="matrix(21.1143,0,0,-21.1143,445.70539,376.75993)" fill="#0e7186"/>
<use data-text="g" xlink:href="#font_3_169" transform="matrix(21.1143,0,0,-21.1143,457.71943,376.75993)" fill="#0e7186"/>
<use data-text="&amp;" xlink:href="#font_3_748" transform="matrix(21.1143,0,0,-21.1143,330.30525,395.7628)" fill="#0e7186"/>
<use data-text=" " xlink:href="#font_3_1" transform="matrix(21.1143,0,0,-21.1143,344.2829,395.7628)" fill="#0e7186"/>
<use data-text="K" xlink:href="#font_3_58" transform="matrix(21.1143,0,0,-21.1143,348.1046,395.7628)" fill="#0e7186"/>
<use data-text="r" xlink:href="#font_3_216" transform="matrix(21.1143,0,0,-21.1143,361.65577,395.7628)" fill="#0e7186"/>
<use data-text="e" xlink:href="#font_3_155" transform="matrix(21.1143,0,0,-21.1143,370.67158,395.7628)" fill="#0e7186"/>
<use data-text="a" xlink:href="#font_3_130" transform="matrix(21.1143,0,0,-21.1143,382.19996,395.7628)" fill="#0e7186"/>
<use data-text="t" xlink:href="#font_3_227" transform="matrix(21.1143,0,0,-21.1143,393.64393,395.7628)" fill="#0e7186"/>
<use data-text="i" xlink:href="#font_3_175" transform="matrix(21.1143,0,0,-21.1143,400.73835,395.7628)" fill="#0e7186"/>
<use data-text="v" xlink:href="#font_3_243" transform="matrix(21.1143,0,0,-21.1143,406.24916,395.7628)" fill="#0e7186"/>
<use data-text="i" xlink:href="#font_3_175" transform="matrix(21.1143,0,0,-21.1143,417.01747,395.7628)" fill="#0e7186"/>
<use data-text="t" xlink:href="#font_3_227" transform="matrix(21.1143,0,0,-21.1143,422.52827,395.7628)" fill="#0e7186"/>
<use data-text="&#x00e4;" xlink:href="#font_3_134" transform="matrix(21.1143,0,0,-21.1143,429.62269,395.7628)" fill="#0e7186"/>
<use data-text="t" xlink:href="#font_3_227" transform="matrix(21.1143,0,0,-21.1143,441.06666,395.7628)" fill="#0e7186"/>
<g clip-path="url(#clip_4)">
<path transform="matrix(1,0,0,-1,337.7049,67.99872)" d="M0 0C2.512 1.137 4.082 2.703 5.284 4.636 5.73 5.477 6.113 6.678 5.473 7.447 3.738 9.533-.898 4.519 0 0M36.879-17.991C36.543-19.358 35.296-20.345 34.069-20.891 26.942-24.066 18.886-23.373 12.265-19.261 8.89-17.166 6.14-14.534 3.666-11.465L.435-7.001-.178-7.491 .011-17.903C-.443-19.121-1.413-19.595-2.765-19.721-3.843-19.822-5.774-19.569-6.177-18.2L-6.923 8.142-6.916 13.085C-6.914 14.522-5.183 15.199-3.891 15.16-3.081 15.135-2.218 14.927-1.671 14.466-1.105 13.988-.954 13.05-.763 11.995 2.17 14.428 6.262 14.988 9.424 12.806 13.363 10.088 12.446 2.722 8.109-1.709L6.043-3.819C10.316-11.351 17.625-17.145 26.48-16.553 31.398-16.224 33.553-13.13 35.739-14.874 36.543-15.515 37.215-16.629 36.879-17.991" fill="#0e7186"/>
<path transform="matrix(1,0,0,-1,455.27565,80.19913)" d="M0 0C3.802 .632 6.092 5.072 6.005 8.637 5.936 11.448 3.856 13.526 1.081 13.477-.973 13.44-2.862 12.441-4.023 10.686-5.566 8.355-5.868 5.336-4.877 2.75-4.099 .719-2.237-.372 0 0M6.645-3.298C2.683-6.313-2.375-7.309-6.683-4.687-13.186-.728-13.133 9.893-8.342 15.465-4.498 19.935 1.687 21.011 6.913 18.085L7.413 30.902C7.475 32.481 9.486 33.206 10.861 32.908 12.018 32.873 13.737 32.047 13.703 30.664L13.212 10.303 13.168-4.657C13.163-6.306 11.501-7.15 9.98-7.008 9.133-6.929 8.167-6.704 7.659-6.184 7.03-5.54 6.966-4.71 6.645-3.298" fill="#fbab18"/>
<path transform="matrix(1,0,0,-1,340.40565,42.792726)" d="M0 0C2.056-.727 4.112-.112 5.543 1.295 8.723 4.419 9.611 10.025 6.199 12.325 4.62 13.389 2.848 13.504 1.088 12.765-2.663 11.189-3.92 6.186-2.263 2.284-1.855 1.323-1.048 .371 0 0M9.149-4.018C9.082-3.012 5.95-7.161-.021-6.421-3.766-5.957-6.872-3.557-8.301 .01-9.825 3.815-9.633 8.074-8.085 11.849-5.228 18.536 2.702 21.518 9.255 17.695L9.723 30.634C9.779 32.181 11.458 32.985 12.847 32.899 13.853 32.837 14.757 32.552 15.342 31.946 16.023 31.242 16.069 30.384 16.05 29.313L15.443-5.295C15.416-6.877 13.42-7.536 12.201-7.484 11.277-7.445 10.495-7.246 9.918-6.733 9.42-6.291 9.236-5.334 9.188-4.603Z" fill="#5fcae4"/>
<path transform="matrix(1,0,0,-1,417.9898,39.079225)" d="M0 0C1.969-.527 3.987 .054 5.456 1.395 7.62 3.369 8.381 6.476 7.457 9.238 6.83 11.116 4.973 11.967 3.092 11.44-.144 10.532-1.619 6.178-2 2.687-2.141 1.388-1.33 .356 0 0M-2.409-6.022C-2.48-7.118-2.964-8.032-4.087-8.334-4.949-8.566-6.155-8.573-6.974-8.295-8.288-7.849-8.702-6.819-8.68-5.491L-8.088 30.813C-8.065 32.269-6.084 32.881-5.101 32.963-3.981 33.057-1.85 32.41-1.854 30.991L-1.905 15.909C3.293 19.413 10.446 17.938 13 12.234 15.411 6.848 13.481 .327 9.136-3.401 5.868-6.205 1.874-7.079-2.409-6.022" fill="#79c8a0"/>
<path transform="matrix(1,0,0,-1,461.43666,26.691102)" d="M0 0C.3 .44 .356 1.428 .142 1.899-.589 3.503-3.968 3.915-6.296 2.264-8.159 .943-9.325-1.081-9.592-3.352-6.111-3.227-1.787-2.619 0 0M-2.041-13.575C-.608-13.216 .546-12.565 1.413-11.542 2.438-10.333 4.026-10.262 5.23-11.014 6.526-11.823 6.97-13.467 6.212-14.967 5.609-16.162 4.577-17.209 3.364-17.954-.749-20.483-5.955-20.734-10.224-18.347-17.272-14.406-17.888-3.596-13.715 3.322-10.67 8.37-4.738 10.681 .782 8.834 2.83 8.148 4.624 6.873 5.569 4.95 7.158 1.717 6.378-2.114 3.982-4.705 .349-8.166-4.381-8.972-9.493-9.695-8.466-12.789-5.242-14.376-2.041-13.575" fill="#79c8a0"/>
<path transform="matrix(1,0,0,-1,435.0686,63.921998)" d="M0 0C-.697 1.988-4.849 2.387-7.484-.398-8.769-1.756-9.607-3.311-9.649-5.335-7.779-5.254-5.983-5.092-4.229-4.609-1.625-3.891 .723-2.062 0 0M1.55-13.29C2.577-12.125 4.433-12.593 5.304-13.411 6.377-14.418 6.63-15.946 5.835-17.309 3.753-20.876-2.095-22.431-6.399-21.689-10.101-21.052-13.267-18.636-14.821-15.135-17.283-9.591-16.832-3.039-13.474 2.066-10.326 6.851-4.161 8.826 1.152 6.96 4.7 5.713 6.623 2.349 6.24-1.303 5.467-8.693-2.553-11.057-9.427-11.538-8.501-14.589-5.613-16.099-2.624-15.647-.87-15.382 .362-14.636 1.55-13.29" fill="#5fcae4"/>
<path transform="matrix(1,0,0,-1,387.8377,17.9281)" d="M0 0C1.567-.021 3.129-.969 3.061-2.555L2.592-13.549C2.45-16.888 2.919-22.172 5.479-23.588 7.036-24.45 8.842-23.686 9.765-22.264 13.122-17.091 11.677-8.539 11.624-1.857 11.613-.465 13.37 .341 14.315 .473 15.538 .644 17.302 .26 17.783-1.076 18.187-5.748 18.343-10.436 18.145-15.177 17.988-18.931 17.079-22.399 15.069-25.447 12.629-29.144 8.438-30.794 4.113-29.633-1.49-28.128-3.835-21.112-3.688-15.654L-3.365-3.713C-3.338-2.718-3.364-1.759-2.727-1.04-2.127-.364-1.205 .016 0 0" fill="#fbab18"/>
<path transform="matrix(1,0,0,-1,391.61054,75.7341)" d="M0 0C1.859 2.691 1.931 6.363 .409 9.165-.347 10.556-1.802 11.381-3.106 11.486-4.602 11.606-6.053 11.044-7.017 9.863-9.192 7.198-9.584 3.403-8.011 .369-7.222-1.153-5.758-2.126-4.242-2.237-2.585-2.359-1.06-1.535 0 0M1.943-6.66C-3.915-10.474-11.391-8.026-14.084-1.728-15.977 2.698-15.773 7.807-13.376 11.985-11.108 15.936-7.03 18.127-2.482 17.764 1.713 17.43 5.179 14.722 6.715 10.825 9.039 4.93 7.549-3.009 1.943-6.66" fill="#79c8a0"/>
<path transform="matrix(1,0,0,-1,373.98255,40.0943)" d="M0 0C1.752 2.76 1.991 6.354 .491 9.133-.339 10.672-1.762 11.538-3.288 11.623-4.835 11.709-6.254 10.956-7.218 9.601-9.146 6.89-9.414 3.159-7.819 .234-6.996-1.277-5.492-2.117-3.953-2.194-2.397-2.271-.953-1.502 0 0M-3.064-8.383C-7.86-8.833-12.067-6.188-13.854-1.844-15.657 2.539-15.485 7.55-13.344 11.757-11.236 15.899-7.028 18.257-2.549 17.844 1.902 17.434 5.63 14.548 7.052 10.127 9.627 2.127 5.598-7.569-3.064-8.383" fill="#0e7186"/>
<path transform="matrix(1,0,0,-1,366.403,72.55841)" d="M0 0C1.76 2.645 1.98 6.147 .72 8.962 .009 10.552-1.49 11.52-2.96 11.655-4.644 11.811-6.224 10.989-7.135 9.533-8.807 6.861-9.251 3.49-7.931 .651-7.184-.955-5.82-2.012-4.206-2.144-2.615-2.274-1.041-1.565 0 0M.373-7.413C-5.367-9.933-11.575-7.256-13.86-1.524-15.653 2.974-15.315 8.225-12.876 12.444-10.511 16.533-6.318 18.517-1.636 17.88 2.561 17.309 6.145 14.139 7.306 9.709 8.978 3.335 6.772-4.603 .373-7.413" fill="#fbab18"/>
<path transform="matrix(1,0,0,-1,451.26655,49.73532)" d="M0 0C1.36 .733 2.832 .465 3.638-.776 4.331-1.843 4.383-3.144 3.782-4.398 2.286-7.521-6.254-8.151-11.386-2.42-16.279 3.043-16.85 10.744-16.606 18.034-16.364 25.284-15.696 32.332-14.998 39.553-15.026 41.226-14.004 42.378-12.162 42.329-11.133 42.479-8.646 41.754-8.755 40.295L-10.222 20.838C-10.527 16.789-10.426 12.948-9.832 8.983-9.473 6.584-8.722 4.292-7.29 2.393-5.536 .066-2.473-1.332 0 0" fill="#5fcae4"/>
<path transform="matrix(1,0,0,-1,415.05805,82.41373)" d="M0 0C1.57 .562 2.906 .001 3.51-1.401 4.244-3.107 3.502-5.027 1.631-5.749-1.617-7.003-5.374-5.848-7.724-3.242-11.13 .535-12.431 6.625-12.03 11.581L-11.31 20.482-14.018 20.947C-15.232 21.155-16.036 22.26-16.199 23.477-16.322 24.396-16.063 25.438-15.475 26.043-14.847 26.688-13.855 26.95-12.944 26.92L-10.338 26.833-9.84 30.853C-9.664 32.27-8.413 32.963-6.929 32.934-5.78 32.911-3.854 32.534-3.638 31.079-3.406 29.515-4.03 27.763-4.003 26.095L1.365 25.294C3.089 25.036 3.539 21.569 1.977 20.054 1.34 19.437 .303 19.257-.629 19.333L-4.943 19.683-5.674 11.339C-6.144 5.971-3.653-1.308 0 0" fill="#0e7186"/>
</g>
<use data-text="S" xlink:href="#font_3_93" transform="matrix(17.0159,0,0,-17.0159,330.30525,112.405918)" fill="#0e7186"/>
<use data-text="P" xlink:href="#font_3_86" transform="matrix(17.0159,0,0,-17.0159,341.2124,112.405918)" fill="#0e7186"/>
<use data-text="R" xlink:href="#font_3_89" transform="matrix(17.0159,0,0,-17.0159,352.2387,112.405918)" fill="#0e7186"/>
<use data-text="A" xlink:href="#font_3_2" transform="matrix(17.0159,0,0,-17.0159,363.42329,112.405918)" fill="#0e7186"/>
<use data-text="C" xlink:href="#font_3_16" transform="matrix(17.0159,0,0,-17.0159,374.61805,112.405918)" fill="#0e7186"/>
<use data-text="H" xlink:href="#font_3_46" transform="matrix(17.0159,0,0,-17.0159,385.5763,112.405918)" fill="#0e7186"/>
<use data-text="B" xlink:href="#font_3_14" transform="matrix(17.0159,0,0,-17.0159,397.55549,112.405918)" fill="#0e7186"/>
<use data-text="I" xlink:href="#font_3_48" transform="matrix(17.0159,0,0,-17.0159,408.96467,112.405918)" fill="#0e7186"/>
<use data-text="L" xlink:href="#font_3_61" transform="matrix(17.0159,0,0,-17.0159,414.06947,112.405918)" fill="#0e7186"/>
<use data-text="D" xlink:href="#font_3_21" transform="matrix(17.0159,0,0,-17.0159,424.245,112.405918)" fill="#0e7186"/>
<use data-text="U" xlink:href="#font_3_104" transform="matrix(17.0159,0,0,-17.0159,435.83283,112.405918)" fill="#0e7186"/>
<use data-text="N" xlink:href="#font_3_67" transform="matrix(17.0159,0,0,-17.0159,447.40364,112.405918)" fill="#0e7186"/>
<use data-text="G" xlink:href="#font_3_42" transform="matrix(17.0159,0,0,-17.0159,459.74018,112.405918)" fill="#0e7186"/>
<use data-text="&amp;" xlink:href="#font_3_748" transform="matrix(17.0159,0,0,-17.0159,330.30525,132.82498)" fill="#0e7186"/>
<use data-text=" " xlink:href="#font_3_1" transform="matrix(17.0159,0,0,-17.0159,341.825,132.82498)" fill="#0e7186"/>
<use data-text="K" xlink:href="#font_3_58" transform="matrix(17.0159,0,0,-17.0159,345.16017,132.82498)" fill="#0e7186"/>
<use data-text="R" xlink:href="#font_3_89" transform="matrix(17.0159,0,0,-17.0159,356.50978,132.82498)" fill="#0e7186"/>
<use data-text="E" xlink:href="#font_3_27" transform="matrix(17.0159,0,0,-17.0159,368.02955,132.82498)" fill="#0e7186"/>
<use data-text="A" xlink:href="#font_3_2" transform="matrix(17.0159,0,0,-17.0159,378.63044,132.82498)" fill="#0e7186"/>
<use data-text="T" xlink:href="#font_3_100" transform="matrix(17.0159,0,0,-17.0159,389.7401,132.82498)" fill="#0e7186"/>
<use data-text="I" xlink:href="#font_3_48" transform="matrix(17.0159,0,0,-17.0159,398.35017,132.82498)" fill="#0e7186"/>
<use data-text="V" xlink:href="#font_3_116" transform="matrix(17.0159,0,0,-17.0159,403.45497,132.82498)" fill="#0e7186"/>
<use data-text="I" xlink:href="#font_3_48" transform="matrix(17.0159,0,0,-17.0159,413.8687,132.82498)" fill="#0e7186"/>
<use data-text="T" xlink:href="#font_3_100" transform="matrix(17.0159,0,0,-17.0159,418.9735,132.82498)" fill="#0e7186"/>
<use data-text="&#x00c4;" xlink:href="#font_3_6" transform="matrix(17.0159,0,0,-17.0159,427.4253,132.82498)" fill="#0e7186"/>
<use data-text="T" xlink:href="#font_3_100" transform="matrix(17.0159,0,0,-17.0159,438.53498,132.82498)" fill="#0e7186"/>
<g clip-path="url(#clip_5)">
<path transform="matrix(1,0,0,-1,13.945206,328.5273)" d="M0 0C2.512 1.137 4.082 2.703 5.284 4.636 5.73 5.477 6.113 6.678 5.473 7.447 3.738 9.533-.898 4.519 0 0M36.879-17.991C36.543-19.358 35.296-20.345 34.069-20.891 26.942-24.066 18.886-23.373 12.265-19.261 8.89-17.166 6.14-14.534 3.666-11.465L.435-7.001-.178-7.491 .011-17.903C-.443-19.121-1.413-19.595-2.765-19.721-3.843-19.822-5.774-19.569-6.177-18.2L-6.923 8.142-6.916 13.085C-6.914 14.522-5.183 15.199-3.891 15.16-3.081 15.135-2.218 14.927-1.671 14.466-1.105 13.988-.954 13.05-.763 11.995 2.17 14.428 6.262 14.988 9.424 12.806 13.363 10.088 12.446 2.722 8.109-1.709L6.043-3.819C10.316-11.351 17.625-17.145 26.48-16.553 31.398-16.224 33.553-13.13 35.739-14.874 36.543-15.515 37.215-16.629 36.879-17.991" fill="#0e7186"/>
<path transform="matrix(1,0,0,-1,131.51592,340.7278)" d="M0 0C3.802 .632 6.092 5.072 6.005 8.637 5.936 11.448 3.856 13.526 1.081 13.477-.973 13.44-2.862 12.441-4.023 10.686-5.566 8.355-5.868 5.336-4.877 2.75-4.099 .719-2.237-.372 0 0M6.645-3.298C2.683-6.313-2.375-7.309-6.683-4.687-13.186-.728-13.133 9.893-8.342 15.465-4.498 19.935 1.687 21.011 6.913 18.085L7.413 30.902C7.475 32.481 9.486 33.206 10.861 32.908 12.018 32.873 13.737 32.047 13.703 30.664L13.212 10.303 13.168-4.657C13.163-6.306 11.501-7.15 9.98-7.008 9.133-6.929 8.167-6.704 7.659-6.184 7.03-5.54 6.966-4.71 6.645-3.298" fill="#fbab18"/>
<path transform="matrix(1,0,0,-1,16.645905,303.3214)" d="M0 0C2.056-.727 4.112-.112 5.543 1.295 8.723 4.419 9.611 10.025 6.199 12.325 4.62 13.389 2.848 13.504 1.088 12.765-2.663 11.189-3.92 6.186-2.263 2.284-1.855 1.323-1.048 .371 0 0M9.149-4.018C9.082-3.012 5.95-7.161-.021-6.421-3.766-5.957-6.872-3.557-8.301 .01-9.825 3.815-9.633 8.074-8.085 11.849-5.228 18.536 2.702 21.518 9.255 17.695L9.723 30.634C9.779 32.181 11.458 32.985 12.847 32.899 13.853 32.837 14.757 32.552 15.342 31.946 16.022 31.242 16.069 30.384 16.05 29.313L15.443-5.295C15.416-6.877 13.42-7.536 12.2-7.484 11.277-7.445 10.495-7.246 9.918-6.733 9.42-6.291 9.236-5.334 9.188-4.603Z" fill="#5fcae4"/>
<path transform="matrix(1,0,0,-1,94.23012,299.6079)" d="M0 0C1.969-.527 3.987 .054 5.456 1.395 7.62 3.369 8.38 6.476 7.457 9.238 6.829 11.116 4.973 11.967 3.092 11.44-.144 10.532-1.619 6.178-2 2.687-2.141 1.388-1.33 .356 0 0M-2.409-6.022C-2.48-7.118-2.965-8.032-4.087-8.334-4.949-8.566-6.155-8.573-6.974-8.295-8.288-7.849-8.702-6.819-8.68-5.491L-8.089 30.813C-8.065 32.269-6.084 32.881-5.101 32.963-3.981 33.057-1.85 32.41-1.854 30.991L-1.905 15.909C3.293 19.413 10.446 17.938 13 12.234 15.411 6.848 13.481 .327 9.136-3.401 5.868-6.205 1.874-7.079-2.409-6.022" fill="#79c8a0"/>
<path transform="matrix(1,0,0,-1,137.6768,287.21983)" d="M0 0C.3 .44 .356 1.428 .142 1.899-.589 3.503-3.968 3.915-6.296 2.264-8.159 .943-9.325-1.081-9.592-3.352-6.111-3.227-1.787-2.619 0 0M-2.041-13.575C-.608-13.216 .546-12.565 1.413-11.542 2.438-10.333 4.025-10.262 5.23-11.014 6.526-11.823 6.97-13.467 6.212-14.967 5.609-16.162 4.577-17.209 3.364-17.954-.749-20.483-5.955-20.734-10.224-18.347-17.272-14.406-17.888-3.596-13.715 3.322-10.67 8.37-4.738 10.681 .782 8.834 2.83 8.148 4.624 6.873 5.569 4.95 7.158 1.717 6.378-2.114 3.982-4.705 .349-8.166-4.381-8.972-9.493-9.695-8.466-12.789-5.241-14.376-2.041-13.575" fill="#79c8a0"/>
<path transform="matrix(1,0,0,-1,111.308917,324.4507)" d="M0 0C-.697 1.988-4.849 2.387-7.484-.398-8.769-1.756-9.607-3.311-9.649-5.335-7.779-5.254-5.983-5.092-4.229-4.609-1.625-3.891 .723-2.062 0 0M1.55-13.29C2.577-12.125 4.433-12.593 5.304-13.411 6.377-14.418 6.631-15.946 5.835-17.309 3.753-20.876-2.095-22.431-6.399-21.689-10.101-21.052-13.267-18.636-14.821-15.135-17.283-9.591-16.832-3.039-13.474 2.066-10.326 6.851-4.161 8.826 1.152 6.96 4.699 5.713 6.623 2.349 6.24-1.303 5.467-8.693-2.553-11.057-9.427-11.538-8.501-14.589-5.613-16.099-2.624-15.647-.87-15.382 .362-14.636 1.55-13.29" fill="#5fcae4"/>
<path transform="matrix(1,0,0,-1,64.078,278.45683)" d="M0 0C1.567-.021 3.129-.969 3.061-2.555L2.592-13.549C2.45-16.888 2.919-22.171 5.479-23.588 7.036-24.45 8.842-23.686 9.765-22.264 13.122-17.091 11.677-8.539 11.624-1.857 11.613-.465 13.37 .341 14.315 .473 15.538 .644 17.302 .26 17.783-1.076 18.187-5.748 18.343-10.436 18.145-15.177 17.988-18.931 17.079-22.399 15.069-25.447 12.629-29.144 8.437-30.794 4.113-29.633-1.49-28.128-3.835-21.112-3.688-15.654L-3.365-3.713C-3.338-2.718-3.364-1.759-2.727-1.04-2.127-.364-1.205 .016 0 0" fill="#fbab18"/>
<path transform="matrix(1,0,0,-1,67.85071,336.26283)" d="M0 0C1.859 2.691 1.931 6.363 .409 9.165-.347 10.556-1.802 11.381-3.106 11.486-4.602 11.606-6.053 11.044-7.017 9.863-9.192 7.198-9.584 3.403-8.011 .369-7.222-1.153-5.758-2.126-4.242-2.237-2.585-2.359-1.06-1.535 0 0M1.943-6.66C-3.915-10.474-11.391-8.026-14.084-1.728-15.977 2.698-15.773 7.807-13.376 11.985-11.108 15.936-7.03 18.127-2.482 17.764 1.713 17.43 5.179 14.722 6.715 10.825 9.039 4.93 7.549-3.01 1.943-6.66" fill="#79c8a0"/>
<path transform="matrix(1,0,0,-1,50.222703,300.62303)" d="M0 0C1.752 2.76 1.991 6.354 .491 9.133-.339 10.672-1.762 11.538-3.288 11.623-4.835 11.709-6.254 10.956-7.218 9.601-9.146 6.89-9.414 3.159-7.819 .234-6.996-1.277-5.492-2.117-3.953-2.194-2.397-2.271-.953-1.502 0 0M-3.064-8.383C-7.86-8.833-12.067-6.188-13.854-1.844-15.657 2.539-15.485 7.55-13.344 11.757-11.236 15.899-7.028 18.257-2.549 17.844 1.902 17.434 5.63 14.548 7.053 10.127 9.627 2.128 5.598-7.569-3.064-8.383" fill="#0e7186"/>
<path transform="matrix(1,0,0,-1,42.64331,333.087)" d="M0 0C1.76 2.645 1.98 6.147 .72 8.962 .009 10.552-1.49 11.52-2.96 11.655-4.644 11.811-6.224 10.989-7.135 9.533-8.807 6.861-9.251 3.49-7.931 .651-7.184-.955-5.82-2.012-4.206-2.144-2.615-2.274-1.041-1.565 0 0M.373-7.413C-5.367-9.933-11.575-7.256-13.86-1.524-15.653 2.974-15.315 8.225-12.876 12.444-10.511 16.533-6.318 18.517-1.636 17.88 2.561 17.309 6.145 14.139 7.306 9.709 8.978 3.335 6.772-4.603 .373-7.413" fill="#fbab18"/>
<path transform="matrix(1,0,0,-1,127.5067,310.26393)" d="M0 0C1.36 .733 2.832 .465 3.638-.776 4.331-1.843 4.383-3.144 3.782-4.398 2.286-7.521-6.254-8.151-11.386-2.42-16.279 3.043-16.85 10.744-16.606 18.034-16.364 25.284-15.696 32.332-14.998 39.553-15.026 41.226-14.004 42.378-12.162 42.329-11.133 42.479-8.645 41.754-8.755 40.295L-10.222 20.838C-10.527 16.789-10.426 12.948-9.832 8.983-9.473 6.584-8.722 4.292-7.29 2.393-5.536 .066-2.473-1.332 0 0" fill="#5fcae4"/>
<path transform="matrix(1,0,0,-1,91.298297,342.9424)" d="M0 0C1.57 .562 2.906 .001 3.509-1.401 4.244-3.107 3.502-5.027 1.631-5.749-1.617-7.003-5.374-5.848-7.724-3.242-11.13 .535-12.431 6.625-12.03 11.581L-11.31 20.482-14.018 20.947C-15.232 21.155-16.036 22.26-16.199 23.477-16.322 24.396-16.064 25.438-15.475 26.043-14.847 26.688-13.855 26.95-12.944 26.92L-10.338 26.833-9.84 30.853C-9.664 32.27-8.413 32.963-6.929 32.934-5.78 32.911-3.854 32.534-3.638 31.079-3.406 29.515-4.03 27.763-4.003 26.095L1.365 25.294C3.089 25.036 3.539 21.569 1.977 20.054 1.34 19.438 .303 19.257-.629 19.333L-4.943 19.683-5.674 11.339C-6.144 5.971-3.652-1.308 0 0" fill="#0e7186"/>
<path transform="matrix(1,0,0,-1,12.944611,67.99872)" d="M0 0C2.512 1.137 4.082 2.703 5.284 4.636 5.73 5.477 6.113 6.678 5.473 7.447 3.738 9.533-.898 4.519 0 0M36.879-17.991C36.543-19.358 35.296-20.345 34.069-20.891 26.942-24.066 18.886-23.373 12.265-19.261 8.89-17.166 6.14-14.534 3.666-11.465L.434-7.001-.178-7.491 .011-17.903C-.443-19.121-1.413-19.595-2.765-19.721-3.843-19.822-5.774-19.569-6.177-18.2L-6.923 8.142-6.916 13.085C-6.914 14.522-5.183 15.199-3.891 15.16-3.081 15.135-2.218 14.927-1.671 14.466-1.105 13.988-.954 13.05-.763 11.995 2.169 14.428 6.262 14.988 9.424 12.806 13.363 10.088 12.446 2.722 8.109-1.709L6.043-3.819C10.316-11.351 17.625-17.145 26.48-16.553 31.398-16.224 33.553-13.13 35.739-14.874 36.543-15.515 37.215-16.629 36.879-17.991" fill="#0e7186"/>
<path transform="matrix(1,0,0,-1,130.5154,80.19913)" d="M0 0C3.802 .632 6.092 5.072 6.005 8.637 5.936 11.448 3.856 13.526 1.081 13.477-.973 13.44-2.862 12.441-4.023 10.686-5.566 8.355-5.868 5.336-4.877 2.75-4.099 .719-2.237-.372 0 0M6.645-3.298C2.683-6.313-2.375-7.309-6.683-4.687-13.186-.728-13.133 9.893-8.342 15.465-4.498 19.935 1.687 21.011 6.913 18.085L7.413 30.902C7.475 32.481 9.486 33.206 10.861 32.908 12.018 32.873 13.737 32.047 13.703 30.664L13.212 10.303 13.168-4.657C13.163-6.306 11.501-7.15 9.98-7.008 9.133-6.929 8.167-6.704 7.659-6.184 7.03-5.54 6.966-4.71 6.645-3.298" fill="#fbab18"/>
<path transform="matrix(1,0,0,-1,15.645401,42.792726)" d="M0 0C2.056-.727 4.112-.112 5.543 1.295 8.723 4.419 9.611 10.025 6.199 12.325 4.62 13.389 2.848 13.504 1.088 12.765-2.663 11.189-3.92 6.186-2.263 2.284-1.855 1.323-1.048 .371 0 0M9.149-4.018C9.082-3.012 5.95-7.161-.021-6.421-3.766-5.957-6.872-3.557-8.301 .01-9.825 3.815-9.633 8.074-8.085 11.849-5.228 18.536 2.702 21.518 9.255 17.695L9.723 30.634C9.779 32.181 11.458 32.985 12.847 32.899 13.853 32.837 14.757 32.552 15.342 31.946 16.022 31.242 16.069 30.384 16.05 29.313L15.443-5.295C15.416-6.877 13.42-7.536 12.2-7.484 11.277-7.445 10.495-7.246 9.918-6.733 9.42-6.291 9.236-5.334 9.188-4.603Z" fill="#5fcae4"/>
<path transform="matrix(1,0,0,-1,93.2296,39.079225)" d="M0 0C1.969-.527 3.987 .054 5.456 1.395 7.62 3.369 8.38 6.476 7.457 9.238 6.829 11.116 4.973 11.967 3.092 11.44-.144 10.532-1.619 6.178-2 2.687-2.141 1.388-1.33 .356 0 0M-2.409-6.022C-2.48-7.118-2.965-8.032-4.087-8.334-4.949-8.566-6.155-8.573-6.974-8.295-8.288-7.849-8.702-6.819-8.68-5.491L-8.089 30.813C-8.065 32.269-6.084 32.881-5.101 32.963-3.981 33.057-1.85 32.41-1.854 30.991L-1.905 15.909C3.293 19.413 10.446 17.938 13 12.234 15.411 6.848 13.481 .327 9.136-3.401 5.868-6.205 1.874-7.079-2.409-6.022" fill="#79c8a0"/>
<path transform="matrix(1,0,0,-1,136.67632,26.691102)" d="M0 0C.3 .44 .356 1.428 .142 1.899-.589 3.503-3.968 3.915-6.296 2.264-8.159 .943-9.325-1.081-9.592-3.352-6.111-3.227-1.787-2.619 0 0M-2.041-13.575C-.608-13.216 .546-12.565 1.413-11.542 2.438-10.333 4.026-10.262 5.23-11.014 6.526-11.823 6.97-13.467 6.212-14.967 5.609-16.162 4.577-17.209 3.364-17.954-.749-20.483-5.955-20.734-10.224-18.347-17.272-14.406-17.888-3.596-13.715 3.322-10.67 8.37-4.738 10.681 .782 8.834 2.83 8.148 4.624 6.873 5.569 4.95 7.158 1.717 6.378-2.114 3.982-4.705 .349-8.166-4.381-8.972-9.493-9.695-8.466-12.789-5.241-14.376-2.041-13.575" fill="#79c8a0"/>
<path transform="matrix(1,0,0,-1,110.308399,63.921998)" d="M0 0C-.697 1.988-4.849 2.387-7.484-.398-8.769-1.756-9.607-3.311-9.649-5.335-7.779-5.254-5.983-5.092-4.229-4.609-1.625-3.891 .723-2.062 0 0M1.55-13.29C2.577-12.125 4.433-12.593 5.304-13.411 6.377-14.418 6.63-15.946 5.835-17.309 3.753-20.876-2.096-22.431-6.399-21.689-10.101-21.052-13.267-18.636-14.822-15.135-17.283-9.591-16.832-3.039-13.474 2.066-10.326 6.851-4.161 8.826 1.152 6.96 4.699 5.713 6.622 2.349 6.24-1.303 5.467-8.693-2.553-11.057-9.427-11.538-8.501-14.589-5.613-16.099-2.624-15.647-.87-15.382 .362-14.636 1.55-13.29" fill="#5fcae4"/>
<path transform="matrix(1,0,0,-1,63.077409,17.9281)" d="M0 0C1.567-.021 3.129-.969 3.061-2.555L2.592-13.549C2.45-16.888 2.919-22.172 5.479-23.588 7.036-24.45 8.842-23.686 9.765-22.264 13.122-17.091 11.677-8.539 11.624-1.857 11.613-.465 13.37 .341 14.315 .473 15.538 .644 17.302 .26 17.783-1.076 18.187-5.748 18.343-10.436 18.145-15.177 17.988-18.931 17.079-22.399 15.068-25.447 12.629-29.144 8.437-30.794 4.113-29.633-1.49-28.128-3.835-21.112-3.688-15.654L-3.365-3.713C-3.338-2.718-3.364-1.759-2.727-1.04-2.127-.364-1.205 .016 0 0" fill="#fbab18"/>
<path transform="matrix(1,0,0,-1,66.850208,75.7341)" d="M0 0C1.859 2.691 1.931 6.363 .409 9.165-.347 10.556-1.802 11.381-3.106 11.486-4.602 11.606-6.053 11.044-7.017 9.863-9.192 7.198-9.584 3.403-8.011 .369-7.222-1.153-5.758-2.126-4.242-2.237-2.585-2.359-1.06-1.535 0 0M1.943-6.66C-3.915-10.474-11.391-8.026-14.084-1.728-15.977 2.698-15.773 7.807-13.376 11.985-11.108 15.936-7.03 18.127-2.482 17.764 1.713 17.43 5.179 14.722 6.715 10.825 9.039 4.93 7.549-3.009 1.943-6.66" fill="#79c8a0"/>
<path transform="matrix(1,0,0,-1,49.222215,40.0943)" d="M0 0C1.752 2.76 1.991 6.354 .491 9.133-.339 10.672-1.762 11.538-3.288 11.623-4.835 11.709-6.254 10.956-7.218 9.601-9.146 6.89-9.414 3.159-7.819 .234-6.996-1.277-5.492-2.117-3.953-2.194-2.397-2.271-.953-1.502 0 0M-3.064-8.383C-7.86-8.833-12.067-6.188-13.854-1.844-15.657 2.539-15.485 7.55-13.344 11.757-11.236 15.899-7.028 18.257-2.549 17.844 1.902 17.434 5.63 14.548 7.053 10.127 9.627 2.127 5.598-7.569-3.064-8.383" fill="#0e7186"/>
<path transform="matrix(1,0,0,-1,41.642808,72.55841)" d="M0 0C1.76 2.645 1.98 6.147 .72 8.962 .009 10.552-1.49 11.52-2.96 11.655-4.644 11.811-6.224 10.989-7.135 9.533-8.807 6.861-9.251 3.49-7.931 .651-7.184-.955-5.82-2.012-4.206-2.144-2.615-2.274-1.041-1.565 0 0M.373-7.413C-5.367-9.933-11.575-7.256-13.86-1.524-15.653 2.974-15.315 8.225-12.876 12.444-10.511 16.533-6.318 18.517-1.636 17.88 2.561 17.309 6.145 14.139 7.306 9.709 8.978 3.335 6.772-4.603 .373-7.413" fill="#fbab18"/>
<path transform="matrix(1,0,0,-1,126.50621,49.73532)" d="M0 0C1.36 .733 2.832 .465 3.638-.776 4.331-1.843 4.383-3.144 3.782-4.398 2.286-7.521-6.254-8.151-11.386-2.42-16.279 3.043-16.85 10.744-16.606 18.034-16.364 25.284-15.696 32.332-14.998 39.553-15.026 41.226-14.004 42.378-12.162 42.329-11.133 42.479-8.645 41.754-8.755 40.295L-10.222 20.838C-10.527 16.789-10.425 12.948-9.832 8.983-9.473 6.584-8.722 4.292-7.29 2.393-5.536 .066-2.473-1.332 0 0" fill="#5fcae4"/>
<path transform="matrix(1,0,0,-1,90.297809,82.41373)" d="M0 0C1.57 .562 2.906 .001 3.509-1.401 4.244-3.107 3.502-5.027 1.631-5.749-1.617-7.003-5.374-5.848-7.724-3.242-11.13 .535-12.431 6.625-12.03 11.581L-11.31 20.482-14.018 20.947C-15.232 21.155-16.036 22.26-16.199 23.477-16.322 24.396-16.063 25.438-15.475 26.043-14.847 26.688-13.855 26.95-12.944 26.92L-10.338 26.833-9.84 30.853C-9.664 32.27-8.413 32.963-6.929 32.934-5.78 32.911-3.854 32.534-3.638 31.079-3.406 29.515-4.03 27.763-4.003 26.095L1.365 25.294C3.089 25.036 3.539 21.569 1.977 20.054 1.34 19.437 .303 19.257-.629 19.333L-4.943 19.683-5.674 11.339C-6.144 5.971-3.652-1.308 0 0" fill="#0e7186"/>
</g>
<use data-text="b" xlink:href="#font_3_142" transform="matrix(21.1143,0,0,-21.1143,27.0708,375.6447)" fill="#0e7186"/>
<use data-text="y" xlink:href="#font_3_246" transform="matrix(21.1143,0,0,-21.1143,38.561204,375.6447)" fill="#0e7186"/>
<use data-text=" " xlink:href="#font_3_1" transform="matrix(21.1143,0,0,-21.1143,48.97055,375.6447)" fill="#0e7186"/>
<use data-text="S" xlink:href="#font_3_93" transform="matrix(21.1143,0,0,-21.1143,52.792238,375.6447)" fill="#0e7186"/>
<use data-text="o" xlink:href="#font_3_200" transform="matrix(21.1143,0,0,-21.1143,66.00978,375.6447)" fill="#0e7186"/>
<use data-text="p" xlink:href="#font_3_213" transform="matrix(21.1143,0,0,-21.1143,77.728229,375.6447)" fill="#0e7186"/>
<use data-text="h" xlink:href="#font_3_173" transform="matrix(21.1143,0,0,-21.1143,89.42555,375.6447)" fill="#0e7186"/>
<use data-text="i" xlink:href="#font_3_175" transform="matrix(21.1143,0,0,-21.1143,101.43959,375.6447)" fill="#0e7186"/>
<use data-text="e" xlink:href="#font_3_155" transform="matrix(21.1143,0,0,-21.1143,106.950428,375.6447)" fill="#0e7186"/>
</g>
</g>
</g>
</svg>
